<mxfile host="65bd71144e">
    <diagram id="WLQQ7U3qJwuY8MHooGbH" name="Page-1">
        <mxGraphModel dx="1649" dy="5194" grid="1" gridSize="10" guides="1" tooltips="1" connect="1" arrows="1" fold="1" page="1" pageScale="1" pageWidth="827" pageHeight="1169" math="0" shadow="0">
            <root>
                <mxCell id="0"/>
                <mxCell id="1" parent="0"/>
                <mxCell id="3" value="&#10;&#10;&lt;div style=&quot;color: rgb(212, 212, 212); background-color: rgb(30, 30, 30); font-family: consolas, &amp;quot;courier new&amp;quot;, monospace; font-weight: normal; font-size: 14px; line-height: 19px;&quot;&gt;&lt;div&gt;&lt;span style=&quot;color: #6a9955&quot;&gt;// 1. В программу вводится первое число&lt;/span&gt;&lt;/div&gt;&lt;div&gt;&lt;span style=&quot;color: #6a9955&quot;&gt;// 2. В программу вводится второе число&lt;/span&gt;&lt;/div&gt;&lt;div&gt;&lt;span style=&quot;color: #6a9955&quot;&gt;// 3. Найти остаток от деления ч1 на ч2&lt;/span&gt;&lt;/div&gt;&lt;div&gt;&lt;span style=&quot;color: #6a9955&quot;&gt;// 4. Проверить: если остаток не равен 0, показать остаток&lt;/span&gt;&lt;/div&gt;&lt;div&gt;&lt;span style=&quot;color: #6a9955&quot;&gt;// 5. Иначе показать сообщение &quot;кратно&quot;&lt;/span&gt;&lt;/div&gt;&lt;/div&gt;&#10;&#10;" style="text;whiteSpace=wrap;html=1;" vertex="1" parent="1">
                    <mxGeometry x="-790" y="-4650" width="470" height="140" as="geometry"/>
                </mxCell>
                <mxCell id="7" value="" style="edgeStyle=none;html=1;" edge="1" parent="1" source="5" target="6">
                    <mxGeometry relative="1" as="geometry"/>
                </mxCell>
                <mxCell id="5" value="start" style="ellipse;whiteSpace=wrap;html=1;" vertex="1" parent="1">
                    <mxGeometry x="-550" y="-4500" width="120" height="40" as="geometry"/>
                </mxCell>
                <mxCell id="9" value="" style="edgeStyle=none;html=1;" edge="1" parent="1" source="6" target="8">
                    <mxGeometry relative="1" as="geometry"/>
                </mxCell>
                <mxCell id="6" value="firstNumber,&lt;br&gt;secondNumber" style="shape=parallelogram;perimeter=parallelogramPerimeter;whiteSpace=wrap;html=1;fixedSize=1;" vertex="1" parent="1">
                    <mxGeometry x="-560" y="-4440" width="140" height="60" as="geometry"/>
                </mxCell>
                <mxCell id="11" value="" style="edgeStyle=none;html=1;" edge="1" parent="1" source="8">
                    <mxGeometry relative="1" as="geometry">
                        <mxPoint x="-490" y="-4250" as="targetPoint"/>
                    </mxGeometry>
                </mxCell>
                <mxCell id="8" value="remainder = firstNumber mod secondeNumber" style="whiteSpace=wrap;html=1;" vertex="1" parent="1">
                    <mxGeometry x="-650" y="-4340" width="320" height="50" as="geometry"/>
                </mxCell>
                <mxCell id="15" value="Yes" style="edgeStyle=none;html=1;entryX=0.808;entryY=0.013;entryDx=0;entryDy=0;entryPerimeter=0;" edge="1" parent="1" source="12" target="13">
                    <mxGeometry relative="1" as="geometry">
                        <Array as="points">
                            <mxPoint x="-303" y="-4210"/>
                        </Array>
                    </mxGeometry>
                </mxCell>
                <mxCell id="16" value="No" style="edgeStyle=none;html=1;" edge="1" parent="1" source="12">
                    <mxGeometry relative="1" as="geometry">
                        <mxPoint x="-710" y="-4130" as="targetPoint"/>
                        <Array as="points">
                            <mxPoint x="-710" y="-4210"/>
                        </Array>
                    </mxGeometry>
                </mxCell>
                <mxCell id="12" value="remainder !=0" style="rhombus;whiteSpace=wrap;html=1;" vertex="1" parent="1">
                    <mxGeometry x="-570" y="-4250" width="160" height="80" as="geometry"/>
                </mxCell>
                <mxCell id="19" value="" style="edgeStyle=none;html=1;" edge="1" parent="1" source="13" target="18">
                    <mxGeometry relative="1" as="geometry">
                        <Array as="points">
                            <mxPoint x="-480" y="-4080"/>
                        </Array>
                    </mxGeometry>
                </mxCell>
                <mxCell id="13" value="remainder" style="shape=document;whiteSpace=wrap;html=1;boundedLbl=1;" vertex="1" parent="1">
                    <mxGeometry x="-400" y="-4120" width="120" height="80" as="geometry"/>
                </mxCell>
                <mxCell id="17" style="edgeStyle=none;html=1;" edge="1" parent="1" source="14">
                    <mxGeometry relative="1" as="geometry">
                        <mxPoint x="-480" y="-3930" as="targetPoint"/>
                        <Array as="points">
                            <mxPoint x="-480" y="-4080"/>
                        </Array>
                    </mxGeometry>
                </mxCell>
                <mxCell id="14" value="&quot;Кратно&quot;" style="shape=document;whiteSpace=wrap;html=1;boundedLbl=1;" vertex="1" parent="1">
                    <mxGeometry x="-740" y="-4120" width="120" height="80" as="geometry"/>
                </mxCell>
                <mxCell id="18" value="End" style="ellipse;whiteSpace=wrap;html=1;" vertex="1" parent="1">
                    <mxGeometry x="-540" y="-4010" width="120" height="60" as="geometry"/>
                </mxCell>
            </root>
        </mxGraphModel>
    </diagram>
</mxfile>